<svg xmlns="http://www.w3.org/2000/svg" xmlns:xlink="http://www.w3.org/1999/xlink" viewBox="0 0 32.24 16.68"><defs><style>.cls-1{fill:none;}.cls-2{clip-path:url(#clip-path);}.cls-3{fill:#90a4ae;}</style><clipPath id="clip-path" transform="translate(0 0)"><rect class="cls-1" width="32.24" height="16.68"/></clipPath></defs><g id="Layer_2" data-name="Layer 2"><g id="Layer_1-2" data-name="Layer 1"><g class="cls-2"><path class="cls-3" d="M31.86,16.68H15.94v-.76H31.48V6.08h0A5.54,5.54,0,0,1,25.89.76h-2a7.54,7.54,0,0,0-7.39,6.07l-.66,3.39A8,8,0,0,1,8,16.68H.38A.38.38,0,0,1,0,16.3V.38A.38.38,0,0,1,.38,0H15.94V.76H.76V15.92H8a7.25,7.25,0,0,0,7.11-5.85l.66-3.38A8.3,8.3,0,0,1,23.9,0h2.38a.37.37,0,0,1,.28.13.35.35,0,0,1,.1.29l0,.17a4.78,4.78,0,0,0,4.78,4.74l.4,0a.35.35,0,0,1,.29.09.39.39,0,0,1,.13.28V16.3A.38.38,0,0,1,31.86,16.68Z" transform="translate(0 0)"/></g></g></g></svg>