<svg xmlns="http://www.w3.org/2000/svg" xmlns:xlink="http://www.w3.org/1999/xlink" viewBox="0 0 37.28 37.14"><defs><style>.cls-1{fill:none;}.cls-2{clip-path:url(#clip-path);}.cls-3{fill:#ef4438;}</style><clipPath id="clip-path" transform="translate(0)"><rect class="cls-1" width="37.28" height="37.17"/></clipPath></defs><g id="Layer_2" data-name="Layer 2"><g id="Layer_1-2" data-name="Layer 1"><g class="cls-2"><path class="cls-3" d="M28.21,37.14a14.34,14.34,0,0,1-9.73-3.94l-6.7-6.71a10.72,10.72,0,0,1-.29-15.12,10.73,10.73,0,0,1,15.12.29l6.7,6.71a14.12,14.12,0,0,1,4,9.69,9.07,9.07,0,0,1-2.49,6.61A9.14,9.14,0,0,1,28.21,37.14ZM18.78,12.22a6.46,6.46,0,0,0-4.58,1.86,6.9,6.9,0,0,0,.29,9.71l6.7,6.7c2.79,2.78,8.36,4,10.89,1.47a5.5,5.5,0,0,0,1.37-3.9,10.33,10.33,0,0,0-2.85-7l-6.69-6.71A7.29,7.29,0,0,0,18.78,12.22Z" transform="translate(0)"/></g><rect class="cls-3" x="21.74" y="22.85" width="6.61" height="4.07" transform="translate(-10.26 25) rotate(-45)"/><polygon class="cls-3" points="14.22 0 10.45 3.76 10.45 10.45 3.54 10.45 0 14.22 12.34 14.22 14.22 12.34 14.22 0"/></g></g></svg>