<svg xmlns="http://www.w3.org/2000/svg" xmlns:xlink="http://www.w3.org/1999/xlink" viewBox="0 0 32.24 16.12"><defs><style>.cls-1{fill:none;}.cls-2{clip-path:url(#clip-path);}.cls-3{fill:#90a4ae;}</style><clipPath id="clip-path" transform="translate(0 0)"><rect class="cls-1" width="32.24" height="16.12"/></clipPath></defs><g id="Layer_2" data-name="Layer 2"><g id="Layer_1-2" data-name="Layer 1"><g class="cls-2"><path class="cls-3" d="M.75,16.12H0V12.34A4.39,4.39,0,0,1,4.38,8H27.86a3.63,3.63,0,0,0,3.63-3.62V.75H8.81V4.26H8.06V.38A.38.38,0,0,1,8.44,0H31.86a.38.38,0,0,1,.38.38v4a4.38,4.38,0,0,1-4.38,4.37H4.38A3.64,3.64,0,0,0,.75,12.34Zm17.67-3.23H8.77v-.75h9.65Zm-14-8.28-4-4L1,.11l4,4Z" transform="translate(0 0)"/></g></g></g></svg>