<svg xmlns="http://www.w3.org/2000/svg" xmlns:xlink="http://www.w3.org/1999/xlink" viewBox="0 0 32.24 16.68"><defs><style>.cls-1{fill:none;}.cls-2{clip-path:url(#clip-path);}.cls-3{fill:#90a4ae;}</style><clipPath id="clip-path" transform="translate(0 0)"><rect class="cls-1" width="32.24" height="16.68"/></clipPath></defs><g id="Layer_2" data-name="Layer 2"><g id="Layer_1-2" data-name="Layer 1"><g class="cls-2"><path class="cls-3" d="M22.82,16.68H.38A.38.38,0,0,1,0,16.3V.38H.76V15.92H22.82a4.83,4.83,0,0,0,4.48-3.07l.71.27A5.61,5.61,0,0,1,22.82,16.68Z" transform="translate(0 0)"/><path class="cls-3" d="M26.55,0c.57.14.29.61.39,1.2a5.11,5.11,0,0,0,4.92,4.16.43.43,0,0,1,.38.38V16.3h-.76V6.11A3.63,3.63,0,0,1,30.63,6,5.85,5.85,0,0,1,26.13.76c-5.66,0-11.32,0-17,0a4.77,4.77,0,0,0-4.31,3l-.69-.31A5.54,5.54,0,0,1,9.15,0h17.4" transform="translate(0 0)"/></g></g></g></svg>