<svg xmlns="http://www.w3.org/2000/svg" xmlns:xlink="http://www.w3.org/1999/xlink" viewBox="0 0 32.24 16.19"><defs><style>.cls-1{fill:none;}.cls-2{clip-path:url(#clip-path);}.cls-3{fill:#90a4ae;}</style><clipPath id="clip-path" transform="translate(0 -0.39)"><rect class="cls-1" width="32.24" height="16.97"/></clipPath></defs><g id="Layer_2" data-name="Layer 2"><g id="Layer_1-2" data-name="Layer 1"><g class="cls-2"><path class="cls-3" d="M18.13,16.58h-.78a6.88,6.88,0,0,1,6.86-6.87h8v.79h-8a6.08,6.08,0,0,0-6.08,6.08Zm-3.24,0h-.78V10.11h.78ZM8,7.26H0V6.48H8a6.05,6.05,0,0,0,4.3-1.79A6,6,0,0,0,14.11.39h.78a6.81,6.81,0,0,1-2,4.86A6.81,6.81,0,0,1,8,7.26Zm10.1-.39h-.78V.39h.78Z" transform="translate(0 -0.39)"/></g></g></g></svg>