<svg xmlns="http://www.w3.org/2000/svg" xmlns:xlink="http://www.w3.org/1999/xlink" viewBox="0 0 37.42 37.17"><defs><style>.cls-1{fill:none;}.cls-2{clip-path:url(#clip-path);}.cls-3{fill:#fff;}</style><clipPath id="clip-path" transform="translate(0)"><rect class="cls-1" width="37.42" height="37.17"/></clipPath></defs><g id="Layer_2" data-name="Layer 2"><g id="Layer_1-2" data-name="Layer 1"><g class="cls-2"><path class="cls-3" d="M1.17,12.2l3.66,2.12a13.82,13.82,0,0,0-.45,1.82,14.81,14.81,0,0,0-.06,4.79A14.29,14.29,0,0,0,5.59,25a14.46,14.46,0,0,0,10,7.92v4.23a19,19,0,0,1-4-1.13A18.6,18.6,0,0,1,5.8,32.25,18.7,18.7,0,0,1,.22,15.87a18.5,18.5,0,0,1,1-3.67m35.09,0a19.77,19.77,0,0,1,.87,3.21,18.94,18.94,0,0,1,.08,6.15A18.72,18.72,0,0,1,21.8,37.17V32.94a14.29,14.29,0,0,0,2.41-.74A14.73,14.73,0,0,0,31.84,25,14.62,14.62,0,0,0,33,16.14a13.82,13.82,0,0,0-.45-1.82Zm-32-5.36c.34-.42.7-.81,1.08-1.2A18.64,18.64,0,0,1,15.87.22,17,17,0,0,1,18.23,0H19a18.88,18.88,0,0,1,2.61.22,18.62,18.62,0,0,1,5.06,1.53,19,19,0,0,1,4.51,3,19.48,19.48,0,0,1,2,2.12L29.51,9a13.5,13.5,0,0,0-1.14-1.13,14.91,14.91,0,0,0-3.51-2.31,14.52,14.52,0,0,0-3.93-1.19,17.19,17.19,0,0,0-2-.17h-.38a17.37,17.37,0,0,0-2,.17,14.63,14.63,0,0,0-3.93,1.19A15,15,0,0,0,7.91,9Z" transform="translate(0)"/></g></g></g></svg>