<svg xmlns="http://www.w3.org/2000/svg" xmlns:xlink="http://www.w3.org/1999/xlink" viewBox="0 0 36.96 37.17"><defs><style>.cls-1{fill:none;}.cls-2{clip-path:url(#clip-path);}.cls-3{fill:#0073bd;}</style><clipPath id="clip-path" transform="translate(0 0)"><rect class="cls-1" width="36.96" height="37.17"/></clipPath></defs><g id="Layer_2" data-name="Layer 2"><g id="Layer_1-2" data-name="Layer 1"><g class="cls-2"><path class="cls-3" d="M5.94,36A3.94,3.94,0,1,0,2,32,3.95,3.95,0,0,0,5.94,36" transform="translate(0 0)"/></g><rect class="cls-3" x="21.74" y="18.89" width="2.86" height="8.72" transform="translate(-9.65 22.93) rotate(-44.53)"/><g class="cls-2"><path class="cls-3" d="M9.24,26,5.33,25.2l1.44-6.85,3.91.82ZM18.7,10.76l-.83-3.91L25,5.34l.83,3.91Z" transform="translate(0 0)"/><path class="cls-3" d="M31.81,9.87a3.94,3.94,0,1,0-3.94-3.93,3.93,3.93,0,0,0,3.94,3.93" transform="translate(0 0)"/><path class="cls-3" d="M29.75,37.17A7.21,7.21,0,1,1,37,30,7.22,7.22,0,0,1,29.75,37.17Zm0-10.41A3.21,3.21,0,1,0,33,30,3.21,3.21,0,0,0,29.75,26.76ZM10.47,20.94A10.47,10.47,0,1,1,20.94,10.47,10.49,10.49,0,0,1,10.47,20.94ZM10.47,4a6.47,6.47,0,1,0,6.47,6.47A6.47,6.47,0,0,0,10.47,4Z" transform="translate(0 0)"/></g></g></g></svg>